<?xml version="1.0" encoding="UTF-8"?>
<svg version="1.1" xmlns="http://www.w3.org/2000/svg" width="462" height="462">
<path d="M0 0 C4.87607989 3.09754464 6.91283617 6.89918718 8.23828125 12.421875 C8.92573065 18.49434472 7.51885676 23.33460573 4.23828125 28.421875 C1.67245206 30.88484244 -1.04578368 33.421875 -4.76171875 33.421875 C-5.80744518 47.13873326 -6.85073995 60.85577409 -7.89093018 74.57305336 C-8.37400718 80.94251141 -8.85792178 87.31190351 -9.34375 93.68115234 C-9.81256219 99.82772575 -10.27917492 105.97446252 -10.7442627 112.12131882 C-10.92209539 114.46651538 -11.10072073 116.81165199 -11.28015137 119.15672684 C-11.53131371 122.44108066 -11.77965798 125.72563632 -12.02734375 129.01025391 C-12.13955261 130.46466385 -12.13955261 130.46466385 -12.25402832 131.94845581 C-12.59080451 136.45200596 -12.85003465 140.90149845 -12.76171875 145.421875 C-10.15859883 146.09287484 -7.55436477 146.75882838 -4.94921875 147.421875 C-4.21123047 147.61265625 -3.47324219 147.8034375 -2.71289062 148 C0.34363466 148.77450414 3.07201603 149.421875 6.23828125 149.421875 C7.77322492 148.06670356 7.77322492 148.06670356 9.23828125 146.171875 C12.31270681 142.49819699 15.48567301 138.93778963 18.73828125 135.421875 C21.77799541 132.1223737 24.7998628 128.81235783 27.73828125 125.421875 C31.10150763 121.54370487 34.57163796 117.76659689 38.04638672 113.98876953 C42.48051753 109.16602609 46.86346365 104.2984638 51.23828125 99.421875 C52.73799253 97.75494853 54.23799446 96.08828351 55.73828125 94.421875 C56.47433594 93.60332031 57.21039063 92.78476563 57.96875 91.94140625 C59.53100326 90.20706314 61.09628548 88.47544521 62.6640625 86.74609375 C63.45167969 85.87597656 64.23929687 85.00585938 65.05078125 84.109375 C65.75847656 83.32949219 66.46617187 82.54960938 67.1953125 81.74609375 C68.20658203 80.59560547 68.20658203 80.59560547 69.23828125 79.421875 C70.36943359 78.17277344 70.36943359 78.17277344 71.5234375 76.8984375 C73.42153357 74.62492227 73.42153357 74.62492227 73.33984375 72.24609375 C73.18257813 71.54097656 73.0253125 70.83585937 72.86328125 70.109375 C71.87373857 63.96808952 73.06013926 59.60985298 75.98828125 54.171875 C79.1640172 50.29041995 82.48939986 48.00483546 87.23828125 46.421875 C93.24737184 45.88405622 98.0953257 45.95337009 103.23828125 49.421875 C107.73915111 53.29471651 110.86359693 56.98299155 111.5234375 63.0390625 C111.69493516 68.54190061 111.55143453 72.82621078 108.23828125 77.421875 C104.41968948 81.42368204 100.76734621 84.33774462 95.23828125 85.421875 C94.52027344 85.30714844 93.80226563 85.19242187 93.0625 85.07421875 C89.51325972 84.58174043 86.72307036 84.30432788 83.72607422 86.56005859 C79.87444157 90.19629991 76.56867348 94.31443309 73.23828125 98.421875 C72.07840203 99.76111698 70.91302057 101.09564862 69.73828125 102.421875 C69.21234375 103.0303125 68.68640625 103.63875 68.14453125 104.265625 C65.55543123 107.19427913 62.89631891 110.05584173 60.23828125 112.921875 C56.45194219 117.00486373 52.72060992 121.11957314 49.078125 125.33203125 C46.67157411 128.06558693 44.20497494 130.74275662 41.73828125 133.421875 C34.90029916 140.86195083 28.36309848 148.3795618 22.23828125 156.421875 C22.91890625 156.52757812 23.59953125 156.63328125 24.30078125 156.7421875 C27.79956894 157.55174742 30.96738134 158.84968717 34.23828125 160.296875 C34.92180664 160.59859619 35.60533203 160.90031738 36.30957031 161.21118164 C50.21451595 167.47212011 63.86233935 174.47562961 76.23828125 183.421875 C77.28242188 184.17082031 78.3265625 184.91976562 79.40234375 185.69140625 C82.02529884 187.58723835 84.63697574 189.49649927 87.23828125 191.421875 C89.30066819 187.29710111 89.41521029 184.86805136 88.23828125 180.421875 C87.20670588 177.68646165 86.00141686 175.05739525 84.73828125 172.421875 C84.21077271 171.31235474 84.21077271 171.31235474 83.67260742 170.18041992 C77.62775731 157.77564833 70.83770753 144.97782237 57.92578125 139.046875 C57.18521484 138.69238281 56.44464844 138.33789062 55.68164062 137.97265625 C53.8733593 137.10934775 52.05664122 136.26374789 50.23828125 135.421875 C52.60673955 131.06488174 55.55400982 127.68997872 58.92578125 124.109375 C59.43689453 123.55958984 59.94800781 123.00980469 60.47460938 122.44335938 C61.72525159 121.0992112 62.98122749 119.760029 64.23828125 118.421875 C81.62280373 125.4402205 95.51697931 155.32474583 102.46484375 171.45703125 C119.48666821 212.99153597 119.5350305 259.5822765 102.27880859 301.05273438 C96.90182509 313.29540165 90.29749018 324.75315477 82.23828125 335.421875 C81.58988281 336.29328125 80.94148438 337.1646875 80.2734375 338.0625 C64.10069068 358.79838268 43.76906558 374.82629262 20.23828125 386.421875 C36.84107779 394.49780319 55.41283035 397.07663797 73.23828125 391.421875 C80.42686613 388.68542897 87.39195742 385.45003486 94.36962891 382.22265625 C125.38509016 367.99186807 167.58074539 349.71937533 201.62890625 362.234375 C205.26467466 363.88897619 208.15072795 365.89569503 211.23828125 368.421875 C209.84783135 371.52629531 208.22256527 373.7875193 205.86328125 376.234375 C205.27804687 376.85957031 204.6928125 377.48476563 204.08984375 378.12890625 C202.23828125 379.421875 202.23828125 379.421875 200.38305664 379.09863281 C198.2497528 378.42549471 196.16606319 377.66834345 194.0703125 376.88671875 C189.28241011 375.28293271 184.95046756 374.92070101 179.92578125 374.984375 C179.06476807 374.99194824 178.20375488 374.99952148 177.31665039 375.00732422 C161.06674966 375.41176357 145.47426224 380.07300783 130.23828125 385.421875 C129.42842773 385.70514648 128.61857422 385.98841797 127.78417969 386.28027344 C116.84857621 390.15981916 106.34818288 394.7062943 95.86328125 399.671875 C86.77802509 403.96844544 78.14315081 407.57453822 68.23828125 409.421875 C67.29339844 409.60878906 66.34851563 409.79570312 65.375 409.98828125 C43.49637599 413.01259914 22.34980439 406.99847975 3.23828125 396.421875 C2.90828125 396.091875 2.57828125 395.761875 2.23828125 395.421875 C-4.07802093 395.9130048 -10.10213692 397.04136038 -16.26171875 398.484375 C-24.68213397 400.421875 -24.68213397 400.421875 -25.76171875 400.421875 C-26.14337168 379.2613405 -26.14337168 379.2613405 -23.76171875 372.421875 C-21.28278357 370.76122911 -18.87762357 369.33217894 -16.26171875 367.921875 C-3.27102989 360.60640784 8.78784665 351.96390384 20.23828125 342.421875 C21.15867187 341.68582031 22.0790625 340.94976562 23.02734375 340.19140625 C37.79051042 328.13793473 51.79544779 314.53939322 63.01269531 299.09179688 C64.28435415 297.35909838 65.59617922 295.66344928 66.91796875 293.96875 C79.93069877 277.07969103 98.67211098 250.95718946 98.42578125 228.921875 C98.41933594 227.6534375 98.41289062 226.385 98.40625 225.078125 C98.25412809 221.76682022 97.81368084 218.67969849 97.23828125 215.421875 C96.96266357 216.09951904 96.6870459 216.77716309 96.40307617 217.4753418 C84.03854463 247.70739881 69.16464161 275.24188059 48.23828125 300.421875 C47.41457031 301.43121094 46.59085937 302.44054687 45.7421875 303.48046875 C33.97919291 317.69277882 20.9154306 331.21207906 6.23828125 342.421875 C4.88111261 343.50438265 3.52580863 344.58923017 2.171875 345.67578125 C-5.42094971 351.73037948 -13.11072081 357.51035563 -21.26171875 362.796875 C-21.98568848 363.26722168 -22.7096582 363.73756836 -23.45556641 364.22216797 C-28.49513536 367.421875 -28.49513536 367.421875 -30.76171875 367.421875 C-30.79088379 368.08678955 -30.82004883 368.7517041 -30.85009766 369.43676758 C-31.56592414 384.35403495 -33.08045788 398.90617966 -35.63671875 413.609375 C-35.75960266 414.32429108 -35.88248657 415.03920715 -36.00909424 415.77578735 C-37.41008016 423.85380019 -39.02924269 431.86366 -40.89453125 439.84765625 C-41.064758 440.57679733 -41.23498474 441.30593842 -41.41036987 442.05717468 C-42.63200123 447.16243996 -42.63200123 447.16243996 -43.76171875 449.421875 C-44.42171875 449.421875 -45.08171875 449.421875 -45.76171875 449.421875 C-47.85075148 435.97394874 -48.04047638 422.67829565 -47.9675293 409.08740234 C-47.94900121 405.50481207 -47.94702207 401.92247747 -47.94726562 398.33984375 C-47.94235878 396.05728942 -47.93653413 393.77473684 -47.9296875 391.4921875 C-47.92857468 390.42356476 -47.92746185 389.35494202 -47.92631531 388.25393677 C-47.91993546 387.26795502 -47.9135556 386.28197327 -47.90698242 385.26611328 C-47.90317062 384.40027618 -47.89935883 383.53443909 -47.89543152 382.6423645 C-47.76171875 380.421875 -47.76171875 380.421875 -46.76171875 377.421875 C-54.68171875 381.381875 -54.68171875 381.381875 -62.76171875 385.421875 C-60.45171875 385.751875 -58.14171875 386.081875 -55.76171875 386.421875 C-55.70769601 388.52576069 -55.66891619 390.63004214 -55.63671875 392.734375 C-55.61351562 393.90613281 -55.5903125 395.07789063 -55.56640625 396.28515625 C-55.76171875 399.421875 -55.76171875 399.421875 -57.76171875 402.421875 C-95.02298101 400.00717867 -127.58295383 387.55817089 -156.76171875 364.421875 C-155.82293949 363.3152809 -154.88250959 362.21008701 -153.94140625 361.10546875 C-153.41788574 360.48986084 -152.89436523 359.87425293 -152.35498047 359.23999023 C-150.26013965 356.84950915 -148.04199404 354.63508337 -145.76171875 352.421875 C-145.00955078 353.09669922 -145.00955078 353.09669922 -144.2421875 353.78515625 C-132.76214258 363.54417229 -119.49910902 370.69194799 -105.51171875 376.171875 C-104.20883911 376.69297852 -104.20883911 376.69297852 -102.87963867 377.22460938 C-95.44743506 379.98483215 -90.18637133 379.13821131 -82.76171875 376.421875 C-86.34619724 373.47889912 -90.04261061 370.82702287 -93.88671875 368.234375 C-109.17749076 357.75732441 -122.49921354 345.25340154 -134.76171875 331.421875 C-138.33273684 332.90780199 -140.30714631 334.88930347 -142.82421875 337.796875 C-144.01337891 339.14652344 -144.01337891 339.14652344 -145.2265625 340.5234375 C-146.06316406 341.47992188 -146.89976562 342.43640625 -147.76171875 343.421875 C-155.40240283 352.07575432 -163.47310535 360.02825746 -171.99853516 367.80712891 C-173.59067928 369.26523487 -175.16914712 370.73619652 -176.7421875 372.21484375 C-194.1553234 388.421875 -194.1553234 388.421875 -198.76171875 388.421875 C-198.26894958 383.53137346 -195.8524417 380.18997255 -193.07421875 376.296875 C-192.59162598 375.60891846 -192.1090332 374.92096191 -191.61181641 374.2121582 C-190.00809437 371.93916034 -188.38794484 369.67882264 -186.76171875 367.421875 C-186.18566895 366.62217285 -185.60961914 365.8224707 -185.01611328 364.99853516 C-175.93135689 352.43821836 -166.63259397 340.31716386 -156.00927734 329.01025391 C-154.58261617 327.49043478 -153.17149542 325.95734854 -151.76171875 324.421875 C-151.26478516 323.90061035 -150.76785156 323.3793457 -150.25585938 322.84228516 C-148.64917437 321.13279981 -148.64917437 321.13279981 -146.76171875 318.421875 C-147.30131368 314.14105333 -149.88865306 310.89017572 -152.19921875 307.359375 C-176.08120355 269.75300283 -186.36439788 228.21477118 -191.76171875 184.421875 C-205.17121793 224.7563765 -203.65394097 265.7779023 -184.953125 304.19921875 C-180.9079243 312.21432703 -176.11591685 319.490964 -170.765625 326.69140625 C-168.76171875 329.421875 -168.76171875 329.421875 -167.76171875 331.421875 C-168.8399824 332.69701263 -169.92457394 333.96680069 -171.01171875 335.234375 C-171.615 335.94207031 -172.21828125 336.64976562 -172.83984375 337.37890625 C-174.68542273 339.34077171 -176.56117207 340.87857125 -178.76171875 342.421875 C-194.97296232 323.58422884 -206.73427565 300.50780466 -212.76171875 276.421875 C-213.07496094 275.17591553 -213.07496094 275.17591553 -213.39453125 273.90478516 C-218.91290756 250.76165793 -219.40288526 223.59475305 -213.76171875 200.421875 C-213.46370361 199.17374023 -213.46370361 199.17374023 -213.15966797 197.90039062 C-207.37946874 174.39857683 -197.07200096 152.24639534 -181.76171875 133.421875 C-181.3145752 132.86790039 -180.86743164 132.31392578 -180.40673828 131.74316406 C-153.26252788 98.32773719 -114.33998938 76.38200418 -71.48828125 70.91796875 C-58.87273185 69.62085137 -44.19405955 68.5600422 -31.76171875 71.421875 C-31.67135432 76.57264762 -31.97513101 81.31215147 -32.76171875 86.421875 C-33.5302417 86.40616455 -34.29876465 86.3904541 -35.09057617 86.37426758 C-68.39740245 85.7861059 -101.95241036 89.29078967 -130.296875 108.7578125 C-132.76171875 110.421875 -132.76171875 110.421875 -134.76171875 110.421875 C-135.09171875 112.731875 -135.42171875 115.041875 -135.76171875 117.421875 C-134.69179687 117.05835937 -133.621875 116.69484375 -132.51953125 116.3203125 C-112.09501885 109.54021194 -91.15756814 104.79484947 -69.76171875 102.421875 C-68.9116626 102.32543701 -68.06160645 102.22899902 -67.18579102 102.12963867 C-59.97057064 101.38584865 -52.82291685 101.30417109 -45.57421875 101.359375 C-43.86008789 101.36614258 -43.86008789 101.36614258 -42.11132812 101.37304688 C-39.32806765 101.38469232 -36.54492303 101.40104503 -33.76171875 101.421875 C-33.87513366 103.90207997 -34.00186561 106.38032469 -34.13671875 108.859375 C-34.16765625 109.56642578 -34.19859375 110.27347656 -34.23046875 111.00195312 C-34.33452504 112.81426688 -34.54091767 114.62005488 -34.76171875 116.421875 C-37.26377567 117.67290346 -39.0362256 117.58007447 -41.8359375 117.6328125 C-42.88418701 117.65891602 -43.93243652 117.68501953 -45.01245117 117.71191406 C-46.14658447 117.73995117 -47.28071777 117.76798828 -48.44921875 117.796875 C-78.43689923 118.78014537 -107.32886233 124.94425619 -135.76171875 134.421875 C-136.25671875 140.856875 -136.25671875 140.856875 -136.76171875 147.421875 C-133.98701172 146.91527344 -133.98701172 146.91527344 -131.15625 146.3984375 C-97.0635458 140.26825419 -63.26010723 138.17914294 -28.76171875 142.421875 C-28.73995606 141.86748938 -28.71819338 141.31310375 -28.69577122 140.74191856 C-28.13641967 126.80585324 -27.26882678 112.92346941 -26.1328125 99.0234375 C-25.9769694 97.08192552 -25.82146396 95.1403864 -25.66627502 93.19882202 C-25.26355988 88.1715407 -24.85636541 83.14463271 -24.44812012 78.11779785 C-24.02967495 72.95505871 -23.61562834 67.79196685 -23.20117188 62.62890625 C-22.39223819 52.55955302 -21.57855494 42.49059004 -20.76171875 32.421875 C-21.37789062 32.14085937 -21.9940625 31.85984375 -22.62890625 31.5703125 C-26.63747072 29.41185471 -29.02857548 25.54273925 -30.76171875 21.421875 C-31.74231547 14.77446141 -31.17034832 9.55040692 -27.18359375 4.07421875 C-19.43015481 -4.93595891 -10.03224506 -5.41954362 0 0 Z M-157.69921875 129.046875 C-163.60443764 135.06694417 -168.66866219 141.71740874 -173.76171875 148.421875 C-174.3546875 149.05867188 -174.94765625 149.69546875 -175.55859375 150.3515625 C-177.40168303 153.52311224 -177.20266877 156.66964313 -177.13671875 160.234375 C-177.12729248 161.04769287 -177.11786621 161.86101074 -177.1081543 162.69897461 C-176.12888329 205.46307624 -167.20220544 248.61200923 -146.76171875 286.421875 C-146.44235352 287.0204834 -146.12298828 287.6190918 -145.79394531 288.23583984 C-129.30783578 318.94017278 -104.44339963 344.83751657 -74.63671875 362.796875 C-73.85514404 363.28003174 -73.07356934 363.76318848 -72.26831055 364.26098633 C-68.69304004 366.3282829 -66.43616706 367.41062169 -62.25 367.48046875 C-57.87771937 366.15360643 -54.07031446 364.30214042 -50.07421875 362.109375 C-48.95563477 361.5225293 -48.95563477 361.5225293 -47.81445312 360.92382812 C-43.9070811 358.82200357 -40.70870794 356.81985462 -37.76171875 353.421875 C-38.26920654 353.16607666 -38.77669434 352.91027832 -39.29956055 352.64672852 C-54.40017442 344.98981496 -67.89081919 336.52188483 -80.76171875 325.421875 C-81.50252686 324.78378906 -81.50252686 324.78378906 -82.25830078 324.1328125 C-89.5415566 317.80879222 -95.86153429 311.07335097 -101.76171875 303.421875 C-102.57382813 302.41382813 -103.3859375 301.40578125 -104.22265625 300.3671875 C-144.1123339 250.51278521 -150.4974734 186.96903885 -151.76171875 125.421875 C-154.7468464 125.421875 -155.60611065 126.96512192 -157.69921875 129.046875 Z M-135.76171875 163.421875 C-135.94607606 168.86041574 -135.6192737 173.87431884 -134.75390625 179.25390625 C-134.56940918 180.41253174 -134.38491211 181.57115723 -134.19482422 182.76489258 C-134.05189941 183.64169678 -133.90897461 184.51850098 -133.76171875 185.421875 C-133.06777008 185.41521317 -132.37382141 185.40855133 -131.65884399 185.40168762 C-124.98585867 185.34054031 -118.31295601 185.29539079 -111.63974953 185.26643848 C-108.21234422 185.25105162 -104.78517789 185.23033692 -101.35791016 185.19555664 C-78.28808842 184.97919752 -55.72592434 186.2371173 -33.13671875 191.171875 C-31.93635986 191.42864014 -30.73600098 191.68540527 -29.49926758 191.94995117 C4.85446207 199.49810098 37.25676043 212.01694258 67.23828125 230.421875 C68.90398021 231.42348608 70.57020103 232.42423471 72.23828125 233.421875 C79.24171427 221.882134 79.24171427 221.882134 81.99609375 209.40625 C76.32073171 194.5449927 44.24635634 182.06427918 30.67578125 175.796875 C-20.44451579 152.97379343 -81.74400808 149.06841451 -135.76171875 163.421875 Z M-130.76171875 200.421875 C-132.0149755 202.9283885 -131.63318411 203.78976765 -131.01953125 206.484375 C-130.84035156 207.28101563 -130.66117187 208.07765625 -130.4765625 208.8984375 C-130.28191406 209.73117188 -130.08726562 210.56390625 -129.88671875 211.421875 C-129.69980469 212.25460938 -129.51289063 213.08734375 -129.3203125 213.9453125 C-128.38435398 218.3019967 -128.38435398 218.3019967 -126.76171875 222.421875 C-125.89297119 222.43645752 -125.02422363 222.45104004 -124.12915039 222.46606445 C-86.27518437 223.17154173 -50.81835394 228.32377249 -14.76171875 240.421875 C-13.33569336 240.89729736 -13.33569336 240.89729736 -11.88085938 241.38232422 C7.65558513 247.97536156 26.45947395 256.41958703 44.44018555 266.51318359 C46.33493213 267.55496721 48.28317221 268.49833487 50.23828125 269.421875 C53.91611077 268.19593183 54.241528 267.22277572 56.15625 263.94921875 C56.68798828 263.05009766 57.21972656 262.15097656 57.76757812 261.22460938 C58.31478516 260.27908203 58.86199219 259.33355469 59.42578125 258.359375 C60.26399414 256.9352832 60.26399414 256.9352832 61.11914062 255.48242188 C62.5001974 253.13344497 63.8727943 250.77992578 65.23828125 248.421875 C61.0957164 243.80132189 56.49386524 240.90156601 51.11328125 237.859375 C50.20167236 237.34342773 49.29006348 236.82748047 48.35083008 236.29589844 C14.81073179 217.73402723 -21.88792665 206.6323709 -59.76171875 201.421875 C-60.60718262 201.30328125 -61.45264648 201.1846875 -62.32373047 201.0625 C-75.51568489 199.30670809 -88.72695478 199.24359189 -102.01171875 199.234375 C-102.86500763 199.23328735 -103.71829651 199.23219971 -104.59744263 199.2310791 C-117.72337295 199.14565661 -117.72337295 199.14565661 -130.76171875 200.421875 Z M-121.76171875 237.421875 C-120.07280326 243.29286694 -118.29802504 248.86615647 -115.76171875 254.421875 C-115.10171875 254.421875 -114.44171875 254.421875 -113.76171875 254.421875 C-112.44171875 248.811875 -111.12171875 243.201875 -109.76171875 237.421875 C-113.72171875 237.421875 -117.68171875 237.421875 -121.76171875 237.421875 Z M-93.76171875 238.421875 C-96.76093012 246.45928729 -99.15959344 254.33048941 -100.57421875 262.796875 C-100.7594812 263.88234619 -100.7594812 263.88234619 -100.94848633 264.98974609 C-101.28102623 267.13137134 -101.53836949 269.26624949 -101.76171875 271.421875 C-101.85283936 272.1636499 -101.94395996 272.9054248 -102.0378418 273.66967773 C-102.50874635 280.29867448 -100.09987667 283.76028782 -95.94921875 288.734375 C-95.1284082 289.76788086 -95.1284082 289.76788086 -94.29101562 290.82226562 C-93.24741466 292.13404041 -92.19564055 293.43937115 -91.13427734 294.73681641 C-89.62236347 296.59295827 -88.17652376 298.49079026 -86.76171875 300.421875 C-85.27671875 299.926875 -85.27671875 299.926875 -83.76171875 299.421875 C-82.77612301 297.19848441 -82.77612301 297.19848441 -82.13598633 294.41479492 C-81.85592239 293.34666061 -81.57585846 292.27852631 -81.28730774 291.17802429 C-80.99655869 290.01454971 -80.70580963 288.85107513 -80.40625 287.65234375 C-80.09975021 286.46465897 -79.79325043 285.27697418 -79.47746277 284.05329895 C-78.66418246 280.88916331 -77.86264456 277.72233546 -77.06585693 274.55401611 C-76.25318812 271.33956038 -75.42087843 268.13017655 -74.59179688 264.91992188 C-73.96634347 262.47684498 -73.34195903 260.03349413 -72.71875 257.58984375 C-72.42192825 256.43244186 -72.12510651 255.27503998 -71.81929016 254.08256531 C-71.54868271 253.00497452 -71.27807526 251.92738373 -70.99926758 250.81713867 C-70.7596077 249.86973312 -70.51994781 248.92232758 -70.27302551 247.94621277 C-69.62937244 245.19774372 -69.62937244 245.19774372 -69.76171875 241.421875 C-77.71907407 239.53337823 -85.60687572 238.86839378 -93.76171875 238.421875 Z M-53.76171875 244.421875 C-56.56274659 251.37543063 -58.46471717 258.46212816 -60.3359375 265.71484375 C-60.66463333 266.97903641 -60.99332916 268.24322906 -61.33198547 269.54573059 C-62.02316625 272.20673953 -62.71105709 274.86857222 -63.39672852 277.53100586 C-64.27392294 280.93554527 -65.16060272 284.33753317 -66.04988384 287.73893261 C-66.9008855 291.00027986 -67.74292811 294.26392148 -68.5859375 297.52734375 C-68.90463303 298.74512009 -69.22332855 299.96289642 -69.55168152 301.21757507 C-69.98762383 302.92008171 -69.98762383 302.92008171 -70.43237305 304.65698242 C-70.68979782 305.65211349 -70.9472226 306.64724457 -71.21244812 307.67253113 C-71.75049874 310.36571384 -71.9802437 312.68575309 -71.76171875 315.421875 C-70.27253419 317.08745604 -70.27253419 317.08745604 -68.26171875 318.234375 C-67.2871875 318.86279297 -67.2871875 318.86279297 -66.29296875 319.50390625 C-65.78765625 319.80683594 -65.28234375 320.10976563 -64.76171875 320.421875 C-57.21506767 312.70191878 -51.22986061 304.70995104 -45.76171875 295.421875 C-45.41898926 294.85017578 -45.07625977 294.27847656 -44.72314453 293.68945312 C-40.0242841 285.76279723 -36.49762764 277.56946793 -33.32421875 268.921875 C-32.98189209 267.98988281 -32.63956543 267.05789063 -32.28686523 266.09765625 C-30.54724623 261.18579083 -29.26789256 256.6119388 -28.76171875 251.421875 C-41.12851636 247.43071098 -41.12851636 247.43071098 -53.76171875 244.421875 Z M-13.76171875 256.421875 C-13.99246094 257.12570312 -14.22320312 257.82953125 -14.4609375 258.5546875 C-18.79262911 271.66961151 -23.07375964 284.56319472 -29.79101562 296.66894531 C-30.76968797 298.4362661 -31.71210465 300.21980087 -32.65234375 302.0078125 C-36.85592249 309.83653523 -41.83282055 316.69056796 -47.44140625 323.55859375 C-49.79934192 326.37767407 -49.79934192 326.37767407 -51.76171875 329.421875 C-50.34703564 330.38313403 -48.92988235 331.34075825 -47.51171875 332.296875 C-46.7228125 332.83054687 -45.93390625 333.36421875 -45.12109375 333.9140625 C-41.28675731 336.55043352 -41.28675731 336.55043352 -36.85546875 337.421875 C-33.56873956 335.85209389 -31.54329611 333.17440817 -29.26171875 330.421875 C-28.74053467 329.80103027 -28.21935059 329.18018555 -27.68237305 328.54052734 C-12.97293976 310.7356486 3.74949975 288.09640898 6.23828125 264.421875 C4.59532605 263.64492609 2.94871865 262.8756998 1.30078125 262.109375 C0.38425781 261.68011719 -0.53226563 261.25085938 -1.4765625 260.80859375 C-5.50207926 259.10935659 -9.60246922 257.75276544 -13.76171875 256.421875 Z M20.23828125 271.421875 C19.84898437 272.64519531 19.4596875 273.86851562 19.05859375 275.12890625 C12.25001913 295.8764749 2.13897309 313.96206039 -11.4375 331.06005859 C-13.54940889 333.73621152 -15.39184601 336.29073732 -16.76171875 339.421875 C-11.92737684 337.907175 -8.78932001 335.15568673 -5.07421875 331.859375 C-4.45192383 331.31490723 -3.82962891 330.77043945 -3.18847656 330.20947266 C-1.93948948 329.11427154 -0.6931717 328.0160179 0.55029297 326.91455078 C1.93869061 325.68680083 3.33886702 324.47238369 4.7421875 323.26171875 C17.15180153 312.40600422 29.30712334 300.61578743 39.23828125 287.421875 C39.80675781 286.70773437 40.37523437 285.99359375 40.9609375 285.2578125 C42.42865314 283.52101452 42.42865314 283.52101452 42.23828125 281.421875 C39.51483543 279.93199257 36.78362511 278.45693763 34.05078125 276.984375 C33.28185547 276.56349609 32.51292969 276.14261719 31.72070312 275.70898438 C27.92329964 273.67175075 24.59232889 271.90178005 20.23828125 271.421875 Z M87.23828125 292.421875 C86.36279108 293.54337542 85.53172261 294.6995738 84.71875 295.8671875 C84.19740479 296.60735107 83.67605957 297.34751465 83.13891602 298.11010742 C82.57358154 298.91424072 82.00824707 299.71837402 81.42578125 300.546875 C75.45043642 308.92058259 69.13847174 316.79768165 62.23828125 324.421875 C61.65868652 325.06318359 61.0790918 325.70449219 60.48193359 326.36523438 C54.04861744 333.44721599 47.61883755 340.31614206 40.23828125 346.421875 C39.26117188 347.28683594 38.2840625 348.15179688 37.27734375 349.04296875 C26.2832791 358.75621843 14.48770279 367.35896462 2.23828125 375.421875 C4.18303771 376.68835808 4.18303771 376.68835808 6.13916016 375.79199219 C8.72173661 374.60020066 11.29917278 373.40307718 13.86328125 372.171875 C14.8073584 371.71876953 15.75143555 371.26566406 16.72412109 370.79882812 C29.14252656 364.678823 39.96311026 357.08364474 49.98828125 347.55078125 C52.23828125 345.421875 52.23828125 345.421875 55.36328125 342.984375 C59.89971842 338.94102883 63.49938246 334.19625654 67.23828125 329.421875 C67.98464844 328.49117188 68.73101562 327.56046875 69.5 326.6015625 C77.4776099 316.38242521 84.85661089 305.04677768 88.23828125 292.421875 C87.90828125 292.421875 87.57828125 292.421875 87.23828125 292.421875 Z " fill="#FE95C3" transform="translate(247.76171875,7.578125)"/>
<path d="M0 0 C9.86999766 3.06577909 19.09044661 6.81461015 28.25 11.625 C29.58840942 12.32556519 29.58840942 12.32556519 30.95385742 13.0402832 C35.30456028 15.37340099 39.27235726 17.71905825 43 21 C41.55575365 24.23861303 39.74227753 26.61969163 37.375 29.25 C36.74335938 29.95640625 36.11171875 30.6628125 35.4609375 31.390625 C34.97882813 31.92171875 34.49671875 32.4528125 34 33 C32.29166667 32.14583333 30.58333333 31.29166667 28.875 30.4375 C27.23724609 29.61958984 27.23724609 29.61958984 25.56640625 28.78515625 C23.17618617 27.58873722 20.78798854 26.38903347 18.40234375 25.18359375 C12.00087124 21.95507031 5.58501239 18.83836741 -1 16 C-1.02741912 14.4584364 -1.04658248 12.91672526 -1.0625 11.375 C-1.07410156 10.51648438 -1.08570313 9.65796875 -1.09765625 8.7734375 C-0.99215971 5.77733588 -0.54832468 2.94454671 0 0 Z " fill="#FE95C3" transform="translate(246,85)"/>
<path d="M0 0 C11.51461277 1.75917695 22.74847658 3.98017696 34 7 C33.34731071 8.34023092 32.67637458 9.67156496 32 11 C31.56429687 11.90878906 31.12859375 12.81757812 30.6796875 13.75390625 C28.34670212 17.38467787 26.91088209 19.05538643 23 21 C14.84222301 20.89800983 6.76388747 18.32760224 -1 16 C-1.11138159 10.54230189 -0.91657981 5.38490641 0 0 Z " fill="#FE95C3" transform="translate(244,111)"/>
<path d="" fill="#7F8179" transform="translate(0,0)"/>
<path d="" fill="#656760" transform="translate(0,0)"/>
<path d="" fill="#787A73" transform="translate(0,0)"/>
<path d="" fill="#787A73" transform="translate(0,0)"/>
<path d="" fill="#71736D" transform="translate(0,0)"/>
<path d="" fill="#6B6D66" transform="translate(0,0)"/>
<path d="" fill="#71736D" transform="translate(0,0)"/>
<path d="" fill="#656760" transform="translate(0,0)"/>
<path d="" fill="#71736D" transform="translate(0,0)"/>
<path d="" fill="#858880" transform="translate(0,0)"/>
<path d="" fill="#787A73" transform="translate(0,0)"/>
<path d="" fill="#7F8179" transform="translate(0,0)"/>
<path d="" fill="#6B6D66" transform="translate(0,0)"/>
<path d="" fill="#787A73" transform="translate(0,0)"/>
<path d="" fill="#6B6D66" transform="translate(0,0)"/>
<path d="" fill="#656760" transform="translate(0,0)"/>
<path d="" fill="#6B6D66" transform="translate(0,0)"/>
<path d="" fill="#858880" transform="translate(0,0)"/>
<path d="" fill="#858880" transform="translate(0,0)"/>
<path d="" fill="#858880" transform="translate(0,0)"/>
<path d="" fill="#858880" transform="translate(0,0)"/>
<path d="" fill="#858880" transform="translate(0,0)"/>
<path d="" fill="#656760" transform="translate(0,0)"/>
</svg>
